<?xml version="1.0" standalone="no"?><!-- Generator: Gravit.io --><svg xmlns="http://www.w3.org/2000/svg" xmlns:xlink="http://www.w3.org/1999/xlink" style="isolation:isolate" viewBox="0 0 90 90" width="90" height="90"><defs><clipPath id="_clipPath_8DNFz3svucnsiGgASvcx53FNEnDSkIoY"><rect width="90" height="90"/></clipPath></defs><g clip-path="url(#_clipPath_8DNFz3svucnsiGgASvcx53FNEnDSkIoY)"><g><path d="M 45 2.143 L 45 2.143 C 68.654 2.143 87.857 21.346 87.857 45 L 87.857 45 C 87.857 68.653 68.654 87.857 45 87.857 L 45 87.857 C 21.347 87.857 2.143 68.653 2.143 45 L 2.143 45 C 2.143 21.346 21.347 2.143 45 2.143 Z" style="stroke:none;fill:#31363B;stroke-miterlimit:10;"/><path d="M 45 2.143 L 45 2.143 C 68.654 2.143 87.857 21.346 87.857 45 L 87.857 45 C 87.857 68.653 68.654 87.857 45 87.857 L 45 87.857 C 21.347 87.857 2.143 68.653 2.143 45 L 2.143 45 C 2.143 21.346 21.347 2.143 45 2.143 Z" style="fill:none;stroke:#31363B;stroke-width:2;stroke-miterlimit:2;"/><path d=" M 43.61 2.176 C 20.518 2.907 2.143 21.724 2.143 45 C 2.143 68.276 20.518 87.093 43.61 87.824 L 43.61 87.786 C 44.073 87.825 44.536 87.848 45 87.857 C 56.835 87.857 66.429 78.263 66.429 66.429 C 66.429 54.594 56.835 45 45 45 C 44.478 44.989 44.089 44.993 43.61 44.929 C 32.349 44.197 23.585 34.857 23.571 23.571 C 23.574 12.278 32.341 2.925 43.61 2.193 L 43.61 2.176 Z " fill="rgb(252,252,252)"/><g opacity="0.25"><path d=" M 0.027 43.929 C 0.018 44.304 0 44.675 0 45.052 C 0 69.953 20.047 90 44.948 90 C 69.849 90 89.895 69.953 89.895 45.052 C 89.895 44.675 89.877 44.304 89.868 43.929 C 89.275 68.306 69.462 87.753 44.948 87.753 C 20.424 87.753 0.62 68.306 0.027 43.929" fill="rgb(0,0,0)"/></g><path d=" M 45 14.483 C 42.736 14.483 40.564 15.382 38.963 16.983 C 37.362 18.584 36.463 20.756 36.463 23.02 C 36.463 27.735 40.285 31.557 45 31.557 C 49.715 31.557 53.537 27.735 53.537 23.02 C 53.537 20.756 52.638 18.584 51.037 16.983 C 49.436 15.382 47.264 14.483 45 14.483 Z  M 41.738 18.751 L 45 22.014 L 48.263 18.751 L 49.268 19.757 L 46.006 23.02 L 49.268 26.282 L 48.263 27.288 L 45 24.026 L 41.738 27.288 L 40.732 26.282 L 43.994 23.02 L 40.732 19.757 L 41.738 18.751 Z " fill="rgb(249,249,249)"/><path d=" M 45 57.34 C 42.736 57.34 40.564 58.24 38.963 59.841 C 37.362 61.442 36.463 63.613 36.463 65.877 C 36.463 70.592 40.285 74.414 45 74.414 C 49.715 74.414 53.537 70.592 53.537 65.877 C 53.537 63.613 52.638 61.442 51.037 59.841 C 49.436 58.24 47.264 57.34 45 57.34 Z  M 41.738 61.609 L 45 64.871 L 48.263 61.609 L 49.268 62.615 L 46.006 65.877 L 49.268 69.14 L 48.263 70.146 L 45 66.883 L 41.738 70.146 L 40.732 69.14 L 43.994 65.877 L 40.732 62.615 L 41.738 61.609 Z " fill="rgb(49,54,59)"/><g opacity="0.15"><linearGradient id="_lgradient_1" x1="-0.07142857142857148" y1="-0.19507569285714288" x2="-0.07142857142857152" y2="0.03156578152513148" gradientTransform="matrix(90,0,0,90,0,0)" gradientUnits="userSpaceOnUse"><stop offset="0%" stop-opacity="0.75" style="stop-color:rgb(255,255,255)"/><stop offset="100%" stop-opacity="0" style="stop-color:rgb(255,255,255)"/></linearGradient><path d=" M 45 0 C 20.107 0 0 20.107 0 45 C 0 69.893 20.107 90 45 90 C 69.893 90 90 69.893 90 45 C 90 20.107 69.893 0 45 0 Z " fill="url(#_lgradient_1)"/></g><g opacity="0.1"><path d=" M 0.027 46.071 C 0.018 45.696 0 45.325 0 44.948 C 0 20.047 20.047 0 44.948 0 C 69.849 0 89.895 20.047 89.895 44.948 C 89.895 45.325 89.877 45.696 89.868 46.071 C 89.275 21.694 69.462 2.247 44.948 2.247 C 20.424 2.247 0.62 21.694 0.027 46.071" fill="rgb(255,255,255)"/></g></g></g></svg>