<?xml version="1.0" standalone="no"?><!-- Generator: Gravit.io --><svg xmlns="http://www.w3.org/2000/svg" xmlns:xlink="http://www.w3.org/1999/xlink" style="isolation:isolate" viewBox="0 0 324 324" width="324" height="324"><defs><clipPath id="_clipPath_iNgXQSywgcO012WBgwOqdb5gsLI8TS5g"><rect width="324" height="324"/></clipPath></defs><g clip-path="url(#_clipPath_iNgXQSywgcO012WBgwOqdb5gsLI8TS5g)"><g><path d=" M 146 313.4 C 144.6 313.2 139.2 312.3 134 311.4 C 79.2 302.2 31.9 260.4 15.6 206.8 C 10.4 189.5 9.5 182.8 9.5 161.5 C 9.5 144.3 9.8 140 11.8 130.6 C 25 69.3 71.4 23.7 133.5 11.3 C 146.3 8.8 176.9 8.8 189.5 11.3 C 220.3 17.6 244.9 30.4 267.4 52 C 305.5 88.6 321.6 141.7 310.3 194 C 304.1 222.9 290.5 247.6 269 269 C 247 291.1 222.3 304.4 191.2 311 C 181.9 313 152.4 314.6 146 313.4 Z  M 205.5 305.9 C 218.6 301.9 237.3 292.8 248.5 284.9 C 260 276.7 275.8 261 284 249.6 C 296.9 231.6 306.8 207.9 310.6 186 C 312.8 173.2 312.8 149.7 310.5 136.5 C 302.5 89.9 271.9 48.2 230.5 27.2 C 207.2 15.5 188.2 10.8 163 10.6 C 144.8 10.5 140.3 11.4 127.1 17.7 C 119.5 21.3 116.1 23.7 109.1 30.5 C 99 40.3 93.3 49.3 88.8 62.4 C 85.9 70.8 85.6 72.5 85.6 85 C 85.5 96.5 85.9 99.6 87.8 106 C 92.2 120 97.4 128.5 107.9 139.1 C 116.1 147.3 118.9 149.3 127 153.3 C 138.5 158.9 145.8 160.7 162.6 161.9 C 169.7 162.5 178.1 163.6 181.3 164.5 C 215.4 173.6 238.9 206.2 236.7 241.5 C 235.8 255.8 231.1 269.9 223.7 280.5 C 220.2 285.4 209.8 296 205.4 299.1 C 199.8 302.9 188.2 308.6 184.3 309.5 C 182.5 309.8 180.8 310.5 180.5 311 C 179.7 312.2 194.5 309.2 205.5 305.9 Z  M 165.5 247.6 C 169.4 246 173 240.8 173 237 C 173 233.5 169.5 228.1 166.4 227 C 165 226.4 162.3 226 160.3 226 C 155.4 226 150 231.4 150 236.3 C 150 241.6 151.6 244.8 155.2 247 C 159.1 249.4 160.9 249.5 165.5 247.6 Z " fill="rgb(35,31,32)"/><path d=" M 153.4 93.6 C 150.5 90.7 150 89.5 150 85.5 C 150 81.5 150.5 80.3 153.4 77.4 C 156 74.8 157.6 74 160.4 74 C 170 74 175.7 82.8 171.5 91 C 169.4 95.2 166.2 97 161.2 97 C 157.5 97 156.2 96.4 153.4 93.6 Z " fill="rgb(35,31,32)"/></g><g><path d=" M 180.5 311 C 180.8 310.5 182.5 309.8 184.3 309.5 C 188.2 308.6 199.8 302.9 205.4 299.1 C 209.8 296 220.2 285.4 223.7 280.5 C 231.1 269.9 235.8 255.8 236.7 241.5 C 238.9 206.2 215.4 173.6 181.3 164.5 C 178.1 163.6 169.7 162.5 162.6 161.9 C 145.8 160.7 138.5 158.9 127 153.3 C 118.9 149.3 116.1 147.3 107.9 139.1 C 97.4 128.5 92.2 120 87.8 106 C 85.9 99.6 85.5 96.5 85.6 85 C 85.6 72.5 85.9 70.8 88.8 62.4 C 93.3 49.3 99 40.3 109.1 30.5 C 116.1 23.7 119.5 21.3 127.1 17.7 C 140.3 11.4 144.8 10.5 163 10.6 C 188.2 10.8 207.2 15.5 230.5 27.2 C 271.9 48.2 302.5 89.9 310.5 136.5 C 312.8 149.7 312.8 173.2 310.6 186 C 306.8 207.9 296.9 231.6 284 249.6 C 275.8 261 260 276.7 248.5 284.9 C 237.3 292.8 218.6 301.9 205.5 305.9 C 194.5 309.2 179.7 312.2 180.5 311 Z  M 167.8 95.4 C 174.8 90.5 174.4 79.3 167 75.5 C 162 72.9 157.3 73.5 153.4 77.4 C 150.5 80.3 150 81.5 150 85.5 C 150 89.5 150.5 90.7 153.4 93.6 C 156.2 96.4 157.5 97 161.2 97 C 163.6 97 166.6 96.3 167.8 95.4 Z " fill="rgb(253,253,253)"/><path d=" M 155.2 247 C 151.6 244.8 150 241.6 150 236.3 C 150 231.4 155.4 226 160.3 226 C 162.3 226 165 226.4 166.4 227 C 169.5 228.1 173 233.5 173 237 C 173 240.8 169.4 246 165.5 247.6 C 160.9 249.5 159.1 249.4 155.2 247 Z " fill="rgb(253,253,253)"/></g></g></svg>