<?xml version="1.0" encoding="UTF-8" standalone="no"?>
<svg
   xmlns:dc="http://purl.org/dc/elements/1.1/"
   xmlns:cc="http://creativecommons.org/ns#"
   xmlns:rdf="http://www.w3.org/1999/02/22-rdf-syntax-ns#"
   xmlns:svg="http://www.w3.org/2000/svg"
   xmlns="http://www.w3.org/2000/svg"
   xmlns:xlink="http://www.w3.org/1999/xlink"
   id="svg26"
   version="1.1"
   height="48"
   width="48">
  <title
     id="title834">Yin-Yang</title>
  <metadata
     id="metadata30">
    <rdf:RDF>
      <cc:Work
         rdf:about="">
        <dc:format>image/svg+xml</dc:format>
        <dc:type
           rdf:resource="http://purl.org/dc/dcmitype/StillImage" />
        <dc:title>Yin-Yang</dc:title>
        <dc:creator>
          <cc:Agent>
            <dc:title>Alessandro Longo &lt;alessandro.longo@kdemail.net&gt;</dc:title>
          </cc:Agent>
        </dc:creator>
        <cc:license
           rdf:resource="http://creativecommons.org/licenses/by/4.0/" />
      </cc:Work>
      <cc:License
         rdf:about="http://creativecommons.org/licenses/by/4.0/">
        <cc:permits
           rdf:resource="http://creativecommons.org/ns#Reproduction" />
        <cc:permits
           rdf:resource="http://creativecommons.org/ns#Distribution" />
        <cc:requires
           rdf:resource="http://creativecommons.org/ns#Notice" />
        <cc:requires
           rdf:resource="http://creativecommons.org/ns#Attribution" />
        <cc:permits
           rdf:resource="http://creativecommons.org/ns#DerivativeWorks" />
      </cc:License>
    </rdf:RDF>
  </metadata>
  <defs
     id="defs12">
    <linearGradient
       id="linearGradient864">
      <stop
         id="stop860"
         offset="0"
         style="stop-color:#ffffff;stop-opacity:0.75" />
      <stop
         id="stop862"
         offset="1"
         style="stop-color:#ffffff;stop-opacity:0;" />
    </linearGradient>
    <linearGradient
       gradientTransform="translate(-384.57,-499.8)"
       gradientUnits="userSpaceOnUse"
       x2="0"
       y2="503.8"
       y1="543.8"
       id="a">
      <stop
         id="stop2"
         stop-color="#197cf1" />
      <stop
         id="stop4"
         stop-color="#20bcfa"
         offset="1" />
    </linearGradient>
    <linearGradient
       gradientUnits="userSpaceOnUse"
       x2="39.28"
       y2="36.633"
       x1="22.285"
       y1="18.71"
       id="b">
      <stop
         id="stop7"
         stop-color="#292c2f" />
      <stop
         id="stop9"
         stop-opacity="0"
         stop-color="#292c2f"
         offset="1" />
    </linearGradient>
    <style
       type="text/css"
       id="current-color-scheme">
            .ColorScheme-NegativeText {
                color:#da4453;
            }
        </style>
    <style
       type="text/css"
       id="current-color-scheme-3">
      .ColorScheme-Text {
        color:#232629;
      }
      .ColorScheme-NegativeText {
        color:#da4453;
      }
      </style>
    <linearGradient
       gradientUnits="userSpaceOnUse"
       y2="25.519318"
       x2="-3.7293971e-15"
       y1="-5.1931791"
       x1="-1.8487989e-15"
       id="linearGradient866"
       xlink:href="#linearGradient864" />
  </defs>
  <rect
     style="fill:#31363b;stroke-width:2;stroke-opacity:1;fill-opacity:1;stroke:#31363b;stroke-miterlimit:4;stroke-dasharray:none"
     id="rect14"
     height="40"
     rx="20"
     y="3.9999878"
     x="4.0000072"
     width="40" />
  <path
     id="circle842"
     d="M 23.351562,4.015625 C 12.575054,4.356723 4,13.137715 4,24 4,34.862285 12.575054,43.643277 23.351562,43.984375 v -0.01758 C 23.567292,43.984881 23.783552,43.995954 24,44 29.522847,44 34,39.522847 34,34 34,28.477153 29.522847,24 24,24 c -0.243391,-0.0051 -0.425079,-0.0032 -0.648438,-0.0332 C 18.096219,23.625306 14.006403,19.266422 14,14 c 0.0013,-5.2701865 4.092467,-9.6348237 9.351562,-9.9765625 z"
     style="color:#4d4d4d;clip-rule:nonzero;display:inline;overflow:visible;visibility:visible;opacity:1;isolation:auto;mix-blend-mode:normal;color-interpolation:sRGB;color-interpolation-filters:linearRGB;solid-color:#000000;solid-opacity:1;vector-effect:none;fill:#fcfcfc;fill-opacity:1;fill-rule:nonzero;stroke:none;stroke-width:3.9000001;stroke-linecap:butt;stroke-linejoin:miter;stroke-miterlimit:4;stroke-dasharray:none;stroke-dashoffset:0;stroke-opacity:1;marker:none;marker-start:none;marker-mid:none;marker-end:none;color-rendering:auto;image-rendering:auto;shape-rendering:auto;text-rendering:auto;enable-background:accumulate" />
  <path
     style="opacity:0.25;fill:#000000;fill-opacity:1;stroke-width:2.79999995;stroke-opacity:0.55"
     id="path16"
     d="m 3.0125926,23.5 c -0.0042,0.175147 -0.012585,0.348196 -0.012585,0.52439 0,11.620483 9.3551164,20.9756 20.9755994,20.9756 11.620482,0 20.9756,-9.355117 20.9756,-20.9756 0,-0.176194 -0.0084,-0.349243 -0.01259,-0.52439 C 44.661742,34.876117 35.415698,43.951211 23.975606,43.951211 12.531319,43.951211 3.2894698,34.876117 3.012592,23.5" />
  <path
     style="color:#da4453;fill:#f9f9f9;fill-opacity:1;stroke:none;stroke-width:1"
     class="ColorScheme-NegativeText"
     d="M 24,9.758733 A 3.983915,3.983915 0 0 0 20.016085,13.742648 3.983915,3.983915 0 0 0 24,17.726562 3.983915,3.983915 0 0 0 27.983915,13.742648 3.983915,3.983915 0 0 0 24,9.758733 Z m -1.5225,1.991958 1.5225,1.5225 1.5225,-1.5225 0.469458,0.469457 -1.5225,1.5225 1.5225,1.522499 L 25.5225,15.734605 24,14.212106 l -1.5225,1.522499 -0.469457,-0.469458 1.5225,-1.522499 -1.5225,-1.5225 z"
     id="path834" />
  <path
     id="path854"
     d="M 24,29.758733 A 3.983915,3.983915 0 0 0 20.016085,33.742648 3.983915,3.983915 0 0 0 24,37.726562 3.983915,3.983915 0 0 0 27.983915,33.742648 3.983915,3.983915 0 0 0 24,29.758733 Z m -1.5225,1.991958 1.5225,1.5225 1.5225,-1.5225 0.469458,0.469457 -1.5225,1.5225 1.5225,1.522499 L 25.5225,35.734605 24,34.212106 l -1.5225,1.522499 -0.469457,-0.469458 1.5225,-1.522499 -1.5225,-1.5225 z"
     class="ColorScheme-NegativeText"
     style="color:#da4453;fill:#31363b;fill-opacity:1;stroke:none;stroke-width:1" />
  <path
     id="rect856"
     d="M 24,3 C 12.383297,3 3,12.383297 3,24 3,35.616703 12.383297,45 24,45 35.616703,45 45,35.616703 45,24 45,12.383297 35.616703,3 24,3 Z"
     style="color:#000000;font-style:normal;font-variant:normal;font-weight:normal;font-stretch:normal;font-size:medium;line-height:normal;font-family:sans-serif;font-variant-ligatures:normal;font-variant-position:normal;font-variant-caps:normal;font-variant-numeric:normal;font-variant-alternates:normal;font-feature-settings:normal;text-indent:0;text-align:start;text-decoration:none;text-decoration-line:none;text-decoration-style:solid;text-decoration-color:#000000;letter-spacing:normal;word-spacing:normal;text-transform:none;writing-mode:lr-tb;direction:ltr;text-orientation:mixed;dominant-baseline:auto;baseline-shift:baseline;text-anchor:start;white-space:normal;shape-padding:0;clip-rule:nonzero;display:inline;overflow:visible;visibility:visible;opacity:0.15;isolation:auto;mix-blend-mode:normal;color-interpolation:sRGB;color-interpolation-filters:linearRGB;solid-color:#000000;solid-opacity:1;vector-effect:none;fill:url(#linearGradient866);fill-opacity:1;fill-rule:nonzero;stroke:none;stroke-width:2;stroke-linecap:butt;stroke-linejoin:miter;stroke-miterlimit:4;stroke-dasharray:none;stroke-dashoffset:0;stroke-opacity:1;color-rendering:auto;image-rendering:auto;shape-rendering:auto;text-rendering:auto;enable-background:accumulate" />
  <path
     d="m 3.0125926,24.499978 c -0.0042,-0.175147 -0.012585,-0.348196 -0.012585,-0.52439 0,-11.620483 9.3551164,-20.9756002 20.9755994,-20.9756002 11.620482,0 20.9756,9.3551172 20.9756,20.9756002 0,0.176194 -0.0084,0.349243 -0.01259,0.52439 C 44.661742,13.123861 35.415698,4.0487668 23.975606,4.0487668 c -11.444287,0 -20.6861362,9.0750942 -20.963014,20.4512112"
     id="path868"
     style="opacity:0.1;fill:#ffffff;fill-opacity:1;stroke-width:2.79999995;stroke-opacity:0.55" />
</svg>
